<svg viewBox="0 0 128 128" xmlns="http://www.w3.org/2000/svg" role="img" aria-labelledby="title">
  <title>Codex and ChatGPT</title>
  <defs>
    <linearGradient id="codex-a" x1="19" x2="109" y1="18" y2="110" gradientUnits="userSpaceOnUse">
      <stop stop-color="#38f7ff"/>
      <stop offset=".48" stop-color="#d8ff3d"/>
      <stop offset="1" stop-color="#ff2c9c"/>
    </linearGradient>
    <filter id="codex-glow" x="-40%" y="-40%" width="180%" height="180%">
      <feGaussianBlur stdDeviation="2.8" result="blur"/>
      <feColorMatrix in="blur" values="0 0 0 0 0.22 0 0 0 0 0.97 0 0 0 0 1 0 0 0 .72 0"/>
      <feBlend in="SourceGraphic"/>
    </filter>
  </defs>
  <rect x="13" y="13" width="102" height="102" rx="26" fill="#050609"/>
  <path fill="none" stroke="url(#codex-a)" stroke-linecap="round" stroke-linejoin="round" stroke-width="6" filter="url(#codex-glow)" d="M80.8 24.7c13.6 4.7 22.6 17.5 21.8 31.8 11.2 9.2 14 25.3 6.4 37.7-7.3 12-22.1 17.2-35.1 12.7-10.9 9.2-27 9.5-38.3.7-11.7-9.1-15.2-25.2-8.6-38.2-6.4-13.3-2.2-29.4 9.9-37.8 12-8.3 28.2-7 38.3 2.9 1.7-3.9 3.5-7.1 5.6-9.8Z"/>
  <path fill="none" stroke="#fff8e7" stroke-linecap="round" stroke-linejoin="round" stroke-width="5.2" d="M50 47 35 64l15 17M78 47l15 17-15 17"/>
  <path fill="none" stroke="url(#codex-a)" stroke-linecap="round" stroke-width="5.2" d="m69 42-10 44"/>
</svg>